<svg xmlns="http://www.w3.org/2000/svg" xmlns:xlink="http://www.w3.org/1999/xlink" version="1.1" id="Layer_1" x="0px" y="0px" viewBox="0 0 162.95 39.04" style="enable-background:new 0 0 162.95 39.04;" xml:space="preserve">
<style type="text/css">
	.st0{fill:#70529c;}
</style>
<g>
	<path class="st0" d="M155.04,25.81c1.28-2.15,1.93-4.57,1.93-7.24c0-2.65-0.64-5.04-1.93-7.16c-1.28-2.13-3.05-3.8-5.29-5.02   c-2.25-1.22-4.76-1.83-7.53-1.83c-2.78,0-5.29,0.61-7.53,1.83c-2.25,1.22-4.01,2.89-5.3,5.02c-1.28,2.13-1.93,4.52-1.93,7.16   c0,2.67,0.64,5.1,1.93,7.26c1.28,2.17,3.05,3.87,5.3,5.1c2.24,1.23,4.76,1.85,7.53,1.85c2.75,0,5.25-0.61,7.48-1.84l2.14,2.14   l3.94-3.94l-1.79-1.79C154.37,26.87,154.72,26.35,155.04,25.81z M148.89,22.25l-1.75-1.75l-3.94,3.94l1.74,1.74   c-0.83,0.34-1.71,0.52-2.64,0.52c-1.35,0-2.6-0.36-3.74-1.07c-1.14-0.71-2.06-1.69-2.74-2.92s-1.03-2.6-1.03-4.11   c0-1.48,0.34-2.84,1.01-4.07s1.59-2.2,2.75-2.9c1.15-0.7,2.41-1.05,3.76-1.05c1.35,0,2.59,0.35,3.72,1.05   c1.13,0.7,2.02,1.67,2.67,2.9c0.65,1.23,0.97,2.59,0.97,4.07C149.65,19.93,149.39,21.14,148.89,22.25z" fill="#000000"/>
	<polygon class="st0" points="46.55,21.49 59.59,21.45 59.59,15.79 46.55,15.79 46.55,10.68 60.99,10.68 60.99,4.98 39.41,4.98    39.41,32.33 61.38,32.33 61.38,26.64 46.55,26.64  " fill="#000000"/>
	<path class="st0" d="M81.15,25.58c-1.22,0.57-2.39,0.86-3.51,0.86c-1.38,0-2.63-0.34-3.76-1.03c-1.13-0.69-2.02-1.64-2.67-2.85   c-0.65-1.21-0.98-2.56-0.98-4.04c0-1.48,0.32-2.83,0.98-4.04c0.65-1.21,1.54-2.16,2.67-2.85c1.13-0.69,2.39-1.03,3.76-1.03   c1.2,0,2.41,0.33,3.63,1c1.22,0.66,2.28,1.55,3.16,2.67l4.14-4.99c-1.38-1.46-3.06-2.61-5.03-3.45c-1.98-0.84-3.98-1.27-6.01-1.27   c-2.76,0-5.25,0.61-7.47,1.83c-2.22,1.22-3.97,2.9-5.25,5.03c-1.27,2.13-1.91,4.53-1.91,7.18c0,2.68,0.62,5.1,1.87,7.26   c1.25,2.16,2.97,3.86,5.15,5.11c2.18,1.25,4.63,1.87,7.34,1.87c2,0,4.02-0.46,6.07-1.38c2.04-0.92,3.8-2.17,5.29-3.73l-4.18-4.49   C83.47,24.23,82.38,25.01,81.15,25.58z" fill="#000000"/>
	<polygon class="st0" points="90.37,10.87 98.49,10.87 98.49,32.33 105.63,32.33 105.63,10.87 113.82,10.87 113.82,4.98 90.37,4.98     " fill="#000000"/>
	<rect x="116.71" y="4.98" class="st0" width="7.14" height="27.35" fill="#000000"/>
	<polygon class="st0" points="3.8,4.95 19.69,32.48 24.11,24.82 12.64,4.95  " fill="#000000"/>
	<polygon class="st0" points="28.59,17.17 35.65,4.96 21.54,4.96  " fill="#000000"/>
</g>
</svg>